<svg xmlns="http://www.w3.org/2000/svg" width="314" height="45" viewBox="0 0 314 45">
    <defs>
        <linearGradient id="a" x1="34.996%" x2="68.599%" y1="139.339%" y2="-37.208%">
            <stop offset="19%" stop-color="#81BD41"/>
            <stop offset="100%" stop-color="#CBDB2A"/>
        </linearGradient>
        <linearGradient id="b" x1="46709%" x2="47352%" y1="5198.396%" y2="-392.547%">
            <stop offset="19%" stop-color="#81BD41"/>
            <stop offset="100%" stop-color="#CBDB2A"/>
        </linearGradient>
        <linearGradient id="c" x1="67.712%" x2="42.807%" y1="-2.564%" y2="140.739%">
            <stop offset="0%" stop-color="#00AEA9"/>
            <stop offset="29%" stop-color="#00A7A5"/>
            <stop offset="72%" stop-color="#009399"/>
            <stop offset="83%" stop-color="#008C95"/>
        </linearGradient>
        <linearGradient id="d" x1="28096%" x2="28096%" y1="602%" y2="8703%">
            <stop offset="0%" stop-color="#00AEA9"/>
            <stop offset="29%" stop-color="#00A7A5"/>
            <stop offset="72%" stop-color="#009399"/>
            <stop offset="83%" stop-color="#008C95"/>
        </linearGradient>
        <linearGradient id="e" x1="32476%" x2="32476%" y1="602%" y2="8703%">
            <stop offset="0%" stop-color="#00AEA9"/>
            <stop offset="29%" stop-color="#00A7A5"/>
            <stop offset="72%" stop-color="#009399"/>
            <stop offset="83%" stop-color="#008C95"/>
        </linearGradient>
        <linearGradient id="f" x1="41757%" x2="42400%" y1="5375.902%" y2="-800.403%">
            <stop offset="19%" stop-color="#81BD41"/>
            <stop offset="100%" stop-color="#CBDB2A"/>
        </linearGradient>
        <linearGradient id="g" x1="49988%" x2="50631%" y1="1656.515%" y2="-17.619%">
            <stop offset="19%" stop-color="#81BD41"/>
            <stop offset="100%" stop-color="#CBDB2A"/>
        </linearGradient>
        <linearGradient id="h" x1="29059.087%" x2="29687.869%" y1="6573%" y2="-805%">
            <stop offset="19%" stop-color="#81BD41"/>
            <stop offset="100%" stop-color="#CBDB2A"/>
        </linearGradient>
        <linearGradient id="i" x1="52450%" x2="53093%" y1="949.025%" y2="39.648%">
            <stop offset="19%" stop-color="#81BD41"/>
            <stop offset="100%" stop-color="#CBDB2A"/>
        </linearGradient>
        <linearGradient id="j" x1="55114.531%" x2="55750.093%" y1="7633%" y2="255%">
            <stop offset="19%" stop-color="#81BD41"/>
            <stop offset="100%" stop-color="#CBDB2A"/>
        </linearGradient>
        <linearGradient id="k" x1="36831%" x2="36831%" y1="602%" y2="8703%">
            <stop offset="0%" stop-color="#00AEA9"/>
            <stop offset="29%" stop-color="#00A7A5"/>
            <stop offset="72%" stop-color="#009399"/>
            <stop offset="83%" stop-color="#008C95"/>
        </linearGradient>
        <linearGradient id="l" x1="1125303%" x2="1131329%" y1="-179472%" y2="-179472%">
            <stop offset="0%" stop-color="#00AEA9"/>
            <stop offset="29%" stop-color="#00A7A5"/>
            <stop offset="72%" stop-color="#009399"/>
            <stop offset="83%" stop-color="#008C95"/>
        </linearGradient>
        <linearGradient id="m" x1="626039.288%" x2="625846.044%" y1="1629%" y2="2258%">
            <stop offset="0%" stop-color="#00AEA9"/>
            <stop offset="29%" stop-color="#00A7A5"/>
            <stop offset="72%" stop-color="#009399"/>
            <stop offset="83%" stop-color="#008C95"/>
        </linearGradient>
        <linearGradient id="n" x1="712163%" x2="712961%" y1="1935%" y2="1935%">
            <stop offset="0%" stop-color="#00AEA9"/>
            <stop offset="29%" stop-color="#00A7A5"/>
            <stop offset="72%" stop-color="#009399"/>
            <stop offset="83%" stop-color="#008C95"/>
        </linearGradient>
        <linearGradient id="o" x1="123.246%" x2="49.699%" y1="59.984%" y2="74.385%">
            <stop offset="0%" stop-color="#81BD41"/>
            <stop offset="10%" stop-color="#97C63A"/>
            <stop offset="26%" stop-color="#B4D231"/>
            <stop offset="40%" stop-color="#C5D92C"/>
            <stop offset="50%" stop-color="#CBDB2A"/>
            <stop offset="63%" stop-color="#C7DA2B"/>
            <stop offset="74%" stop-color="#BDD52E"/>
            <stop offset="85%" stop-color="#AACE34"/>
            <stop offset="95%" stop-color="#91C43C"/>
            <stop offset="100%" stop-color="#81BD41"/>
        </linearGradient>
        <linearGradient id="p" x1="619983.344%" x2="619704.452%" y1="-41%" y2="873%">
            <stop offset="0%" stop-color="#81BD41"/>
            <stop offset="10%" stop-color="#97C63A"/>
            <stop offset="26%" stop-color="#B4D231"/>
            <stop offset="40%" stop-color="#C5D92C"/>
            <stop offset="50%" stop-color="#CBDB2A"/>
            <stop offset="63%" stop-color="#C7DA2B"/>
            <stop offset="74%" stop-color="#BDD52E"/>
            <stop offset="85%" stop-color="#AACE34"/>
            <stop offset="95%" stop-color="#91C43C"/>
            <stop offset="100%" stop-color="#81BD41"/>
        </linearGradient>
        <linearGradient id="q" x1="710558%" x2="711716%" y1="404%" y2="404%">
            <stop offset="0%" stop-color="#81BD41"/>
            <stop offset="10%" stop-color="#97C63A"/>
            <stop offset="26%" stop-color="#B4D231"/>
            <stop offset="40%" stop-color="#C5D92C"/>
            <stop offset="50%" stop-color="#CBDB2A"/>
            <stop offset="63%" stop-color="#C7DA2B"/>
            <stop offset="74%" stop-color="#BDD52E"/>
            <stop offset="85%" stop-color="#AACE34"/>
            <stop offset="95%" stop-color="#91C43C"/>
            <stop offset="100%" stop-color="#81BD41"/>
        </linearGradient>
        <linearGradient id="r" x1="1116757%" x2="1122783%" y1="-176042%" y2="-176042%">
            <stop offset="0%" stop-color="#00AEA9"/>
            <stop offset="29%" stop-color="#00A7A5"/>
            <stop offset="72%" stop-color="#009399"/>
            <stop offset="83%" stop-color="#008C95"/>
        </linearGradient>
        <linearGradient id="s" x1="620221.151%" x2="620028.799%" y1="1813%" y2="2442%">
            <stop offset="0%" stop-color="#00AEA9"/>
            <stop offset="29%" stop-color="#00A7A5"/>
            <stop offset="72%" stop-color="#009399"/>
            <stop offset="83%" stop-color="#008C95"/>
        </linearGradient>
        <linearGradient id="t" x1="708811%" x2="709609%" y1="2119%" y2="2119%">
            <stop offset="0%" stop-color="#00AEA9"/>
            <stop offset="29%" stop-color="#00A7A5"/>
            <stop offset="72%" stop-color="#009399"/>
            <stop offset="83%" stop-color="#008C95"/>
        </linearGradient>
    </defs>
    <g fill="none" fill-rule="nonzero">
        <path fill="url(#a)" d="M261.232 15.429c-4.307-.032-8.318 2.149-10.58 5.753h-.11c.137-.628.24-1.263.31-1.902l.048-.453v-.054l.158-1.517c.043-.32-.06-.643-.279-.883a1.138 1.138 0 0 0-.863-.369h-4.192a1.43 1.43 0 0 0-1.377 1.252l-.062.576-.096.94-2.313 22.235-.07.677-.089.832c-.023.31.086.613.3.84.214.228.514.357.83.358h4.474a1.43 1.43 0 0 0 1.376-1.252l.159-1.516a.32.32 0 0 0 0-.081l1.018-9.842c.098-1.266.393-2.51.875-3.688 1.376-3.31 4.391-5.638 8.143-5.638 3.586 0 4.233 2.274 3.882 5.638l-1.053 10.152s-.977 6.227 4.95 6.227h1.376l1.838-17.787c.778-7.297-2.423-10.498-8.653-10.498z"/>
        <path fill="url(#b)" d="M164.188 15.429a20.844 20.844 0 0 0-11.41 3.49c1.78 4.899 5.784 3.206 5.784 3.206a12.855 12.855 0 0 1 4.377-.878c3.092 0 5.287 1.271 4.907 4.982l-.034.387h-.939c-4.59 0-16.767.608-17.678 9.578-.573 5.646 3.638 8.803 8.677 8.803a10.351 10.351 0 0 0 9.077-4.982h.11s-.13.567-.241 1.382a.747.747 0 0 0 0 .132l-.159 1.547a1.134 1.134 0 0 0 1.118 1.23h3.928c.713-.026 1.3-.569 1.38-1.278l.056-.497.103-1.05 1.526-14.81c.732-7.145-3.168-11.242-10.582-11.242zm3.12 16.667c-.345 3.455-3.403 7.422-7.11 7.422-2.878 0-4.08-1.776-3.893-3.656.4-3.932 6.26-4.43 9.857-4.43h1.215l-.069.664z"/>
        <path fill="url(#c)" d="M17.845 39.04H5.63L8.754 7.593l.12-1.188a1.13 1.13 0 0 0-.272-.89 1.094 1.094 0 0 0-.843-.372H4.937a1.42 1.42 0 0 0-1.344 1.262l-.121 1.188L.018 41.667s-.31 2.047 1.64 2.047h20.159c.51-4.953-3.972-4.674-3.972-4.674z"/>
        <path fill="url(#d)" d="M36.983 15.429c-7.734 0-14.167 5.807-15.046 14.789C21.14 38.588 26.371 45 34.911 45c3.972-.047 7.817-1.46 10.934-4.018-2.087-3.62-5.246-1.796-5.246-1.796a12.094 12.094 0 0 1-4.904 1.128c-4.836 0-8.774-3.126-8.438-9.316h19.829s.322-1.623.395-2.347c.711-7.325-2.79-13.222-10.498-13.222zM27.82 26.896c1.2-4.63 4.696-7.2 8.654-7.2 3.494 0 6.17 2.347 5.856 7.2H27.82z"/>
        <path fill="url(#e)" d="M69.818 15.429a12.828 12.828 0 0 0-11.096 6.337h-.11c.15-.426.232-.872.247-1.322l.268-2.65a1.112 1.112 0 0 0-.276-.888 1.129 1.129 0 0 0-.856-.374H55.36a1.43 1.43 0 0 0-1.373 1.261l-2.504 24.17-.048.49c-.034.319.072.636.29.872.217.236.527.368.849.362h2.8a1.444 1.444 0 0 0 1.372-1.26l.178-1.466 1.043-10.126c.092-1.29.367-2.56.817-3.775 1.455-3.984 5.223-6.673 9.49-6.773 4.453 0 4.968 3.06 4.57 6.937l-1.14 11.1s-.905 5.39 4.804 5.39l1.812-17.717c.7-7.018-1.963-10.568-8.502-10.568z"/>
        <path fill="url(#f)" d="M145.503 5.143h-4.385a1.411 1.411 0 0 0-1.335 1.255l-.134 1.357-.153 1.513-1.816 18.163c-.227 2.28-.22 5.977-.22 5.977h-.107a52.567 52.567 0 0 0-2.583-5.977L122.616 5.143h-5.666a1.418 1.418 0 0 0-1.335 1.255l-.147 1.52a.559.559 0 0 0 0 .15l-3.61 35.646c7.02 0 7.461-5.645 7.461-5.645l1.675-16.561c.234-2.287.227-5.984.227-5.984h.107a52.459 52.459 0 0 0 2.556 5.984l12.141 22.206h5.613a1.404 1.404 0 0 0 1.335-1.255l.074-.726.08-.794 3.304-33.048v-.15l.133-1.357a1.125 1.125 0 0 0-.26-.859 1.088 1.088 0 0 0-.801-.382z"/>
        <path fill="url(#g)" d="M189.026 37.551c-1.86-.082-3.183-.686-2.729-5.277l1.084-10.883h1.585s4.582.446 5.177-5.552h-6.214l.609-6.176.067-.686a1.138 1.138 0 0 0-.27-.89 1.078 1.078 0 0 0-.834-.372h-4.173a1.413 1.413 0 0 0-1.338 1.262l-.067.686-.602 6.176h-3.344l-.548 5.552h3.19l-1.164 11.762c-.936 9.4 6.508 10.56 10.314 10.56.705.009 1.41-.047 2.106-.164l.228-2.299s.194-3.548-3.077-3.699z"/>
        <path fill="url(#h)" d="M203.459 11.571c1.804-.044 3.303-1.418 3.523-3.23a2.893 2.893 0 0 0-.72-2.257 2.825 2.825 0 0 0-2.152-.94c-1.792.041-3.286 1.4-3.516 3.197a2.893 2.893 0 0 0 .703 2.276c.55.62 1.339.968 2.162.954z"/>
        <path fill="url(#i)" d="M207 15.429h-2.584s-4.73.083-5.29 5.398l-2.412 22.887h1.938c5.814 0 5.965-5.682 5.965-5.682L207 15.43z"/>
        <path fill="url(#j)" d="M225.829 15.429c-8.37.014-15.363 6.41-16.171 14.789-.88 8.69 5.053 14.782 13.229 14.782 8.374.005 15.378-6.397 16.17-14.782.873-8.641-5.053-14.79-13.228-14.79zm-2.333 23.59c-4.354 0-7.615-3.544-7.082-8.801.533-5.257 4.479-8.78 8.861-8.78 4.382 0 7.552 3.6 7.026 8.808-.526 5.208-4.485 8.773-8.805 8.773z"/>
        <path fill="url(#k)" d="M109.397 5.143h-3.173a1.448 1.448 0 0 0-1.38 1.275l-.159 1.543-1.048 10.333a15.093 15.093 0 0 0-.083 1.874h-.11s-1.705-4.416-8.169-4.416c-7.409 0-13.245 5.746-14.149 14.632-.917 8.646 3.222 14.612 10.81 14.612a11.097 11.097 0 0 0 9.7-5.187h.076c0 .09-.048.289-.09.688 0 0-.42 3.83 5.05 3.83l3.705-36.373.117-1.185.069-.351a1.136 1.136 0 0 0-1.166-1.275zM93.461 40.36c-4.643 0-7.506-3.92-6.899-9.99.649-6.35 4.664-9.995 9.086-9.995 5.305 0 7.402 4.974 6.899 9.94-.718 7.103-4.94 10.045-9.086 10.045z"/>
        <path fill="#80BC00" d="M272.572 38.558a3.76 3.76 0 0 1 .302-1.506 3.897 3.897 0 0 1 2.053-2.027 3.764 3.764 0 0 1 2.996 0c.458.195.874.477 1.225.83.35.355.632.772.828 1.23.413.96.413 2.047 0 3.006a3.897 3.897 0 0 1-2.053 2.027 3.764 3.764 0 0 1-2.996 0 3.937 3.937 0 0 1-1.225-.831 3.871 3.871 0 0 1-.828-1.23 3.733 3.733 0 0 1-.302-1.5zm.673 0c0 .844.334 1.653.929 2.25a3.25 3.25 0 0 0 1.01.675c.39.168.812.253 1.238.25.423.003.843-.082 1.232-.25a3.102 3.102 0 0 0 1.683-1.689 3.212 3.212 0 0 0-.674-3.492 3.102 3.102 0 0 0-1.01-.676 3.16 3.16 0 0 0-1.231-.25 3.194 3.194 0 0 0-2.248.926 3.378 3.378 0 0 0-.674 1.013c-.164.394-.249.816-.249 1.243h-.006zm1.69-2.243h1.736c.421-.034.84.089 1.178.345.263.26.4.623.377.993.023.318-.084.633-.296.871a1.243 1.243 0 0 1-.748.345l1.138 1.87h-.848l-1.13-1.837h-.587v1.81h-.814l-.007-4.397zm.82 1.912h.586c.126.007.251.007.377 0 .115-.006.23-.032.337-.074a.62.62 0 0 0 .242-.19.582.582 0 0 0 .094-.344.569.569 0 0 0-.094-.345.62.62 0 0 0-.242-.189 1.067 1.067 0 0 0-.337-.067h-.963v1.209z"/>
        <path fill="url(#l)" d="M289.36 17.593a8.907 8.907 0 0 0-1.64 3.918 16.191 16.191 0 0 0-.16 1.615c-.027.567-.048 1.04-.048 1.6 0 .561 0 1.163.069 1.777.158 2.168.463 4.324.914 6.452.519 2.54 1.225 5.276 2.076 8.188-1.696-3.587-3.246-6.999-4.845-10.134a62.753 62.753 0 0 0-4.984-8.35c-.402-.54-.81-1.08-1.233-1.607a39.96 39.96 0 0 0-4.305-4.6c-.83-.798-1.696-1.588-2.582-2.386l-1.336-1.209c.581.365 1.156.716 1.737 1.06a38.83 38.83 0 0 0 7.29 3.703c1.702.644 3.528.92 5.35.81.298 0 .582-.047.859-.087.277-.04.519-.088.768-.142l.644-.156a16.8 16.8 0 0 0 1.128-.371l.298-.081z"/>
        <path fill="url(#m)" d="M280.411 13.424c.584-1.386 2.326-2.149 3.985-1.745.797.156 1.484.584 1.9 1.184.418.6.528 1.32.306 1.992-.584 1.398-2.346 2.164-4.014 1.745-.799-.152-1.487-.58-1.9-1.183a2.192 2.192 0 0 1-.277-1.993z"/>
        <path fill="url(#n)" d="M282.129 15.032c-1.353-.355-2.136-.603-1.741-1.816s1.812-1.906 3.164-1.552c.586.101 1.112.474 1.46 1.032.346.559.485 1.257.385 1.936-.272 1.243-1.916.746-3.268.4z"/>
        <path fill="url(#o)" d="M301.694 9.443c-.901 1.503-2.002 3.175-2.283 5.7a24.958 24.958 0 0 0-.233 2.35 34.134 34.134 0 0 0-.06 2.329c.006.812.033 1.693.093 2.586.22 3.158.645 6.297 1.275 9.397.727 3.69 1.715 7.678 2.943 11.91-2.376-5.214-4.552-10.156-6.787-14.746a91.524 91.524 0 0 0-6.98-12.187 60.542 60.542 0 0 0-1.722-2.342 57.978 57.978 0 0 0-6.006-6.69 164.183 164.183 0 0 0-3.617-3.48l-1.888-1.699c.807.529 1.621 1.05 2.422 1.55a53.93 53.93 0 0 0 10.21 5.417 17.572 17.572 0 0 0 7.487 1.158c.42 0 .821-.075 1.202-.136.38-.06.734-.122 1.08-.196.348-.074.608-.149.902-.237a18.72 18.72 0 0 0 1.574-.535l.388-.149z"/>
        <path fill="url(#p)" d="M288.162 2.773c.822-2.093 3.28-3.232 5.602-2.598 1.113.233 2.073.875 2.655 1.777.582.901.735 1.983.423 2.99-.825 2.091-3.28 3.23-5.603 2.598-1.115-.229-2.077-.87-2.66-1.773a3.536 3.536 0 0 1-.417-2.994z"/>
        <path fill="url(#q)" d="M292.04 4.631c-1.999-.465-3.19-.806-2.605-2.425.586-1.618 2.71-2.556 4.729-2.084 2.017.473 3.156 2.355 2.757 3.974-.4 1.619-2.857.994-4.882.535z"/>
        <path fill="url(#r)" d="M312.475 18.845a8.823 8.823 0 0 0-1.606 3.952 16.345 16.345 0 0 0-.166 1.614 20.776 20.776 0 0 0-.041 1.601c.006.554 0 1.162.062 1.777.161 2.168.466 4.323.914 6.452.519 2.54 1.225 5.276 2.076 8.188-1.696-3.588-3.246-7-4.845-10.134a62.02 62.02 0 0 0-4.984-8.35 38.33 38.33 0 0 0-1.233-1.608 41.02 41.02 0 0 0-4.298-4.6 146.13 146.13 0 0 0-2.582-2.385l-1.343-1.21c.581.366 1.163.717 1.737 1.068a39.242 39.242 0 0 0 7.29 3.702 13.04 13.04 0 0 0 5.336.77c.298 0 .582-.047.859-.087.277-.04.519-.088.768-.142l.644-.156a16.8 16.8 0 0 0 1.128-.371l.284-.081z"/>
        <path fill="url(#s)" d="M303.55 14.719c.58-1.397 2.331-2.164 3.994-1.75.796.154 1.482.582 1.898 1.182.416.6.525 1.32.301 1.991-.579 1.397-2.333 2.162-3.994 1.744-.8-.146-1.492-.57-1.91-1.172a2.196 2.196 0 0 1-.29-1.995z"/>
        <path fill="url(#t)" d="M305.266 16.315c-1.353-.354-2.13-.602-1.735-1.815.395-1.212 1.806-1.904 3.165-1.55.585.103 1.11.475 1.457 1.033.346.558.486 1.254.388 1.933-.279 1.242-1.916.753-3.275.399z"/>
    </g>
</svg>
